<svg width="25" height="25" viewBox="0 0 25 25" fill="none" xmlns="http://www.w3.org/2000/svg">
<path d="M21.4532 15.673C20.6395 14.2733 20.2073 12.2642 20.2073 9.86703C20.2073 7.77846 19.3776 5.77542 17.9008 4.29857C16.4239 2.82172 14.4209 1.99203 12.3323 1.99203C10.2437 1.99203 8.24068 2.82172 6.76384 4.29857C5.28699 5.77542 4.4573 7.77846 4.4573 9.86703C4.4573 12.2652 4.02699 14.2733 3.21324 15.673C3.04719 15.9585 2.95917 16.2826 2.95802 16.6129C2.95687 16.9431 3.04262 17.2679 3.20668 17.5545C3.36969 17.8413 3.6063 18.0794 3.89207 18.2442C4.17784 18.409 4.50242 18.4946 4.8323 18.492H8.22418C8.3172 19.5173 8.79025 20.4708 9.55039 21.165C10.3105 21.8593 11.3028 22.2443 12.3323 22.2443C13.3618 22.2443 14.3541 21.8593 15.1142 21.165C15.8744 20.4708 16.3474 19.5173 16.4404 18.492H19.8323C20.1617 18.4941 20.4857 18.4083 20.7709 18.2435C21.0562 18.0787 21.2923 17.8409 21.4551 17.5545C21.6199 17.2683 21.7064 16.9438 21.7061 16.6135C21.7058 16.2832 21.6186 15.9589 21.4532 15.673ZM12.3323 19.992C11.9001 19.9921 11.4811 19.8429 11.1462 19.5695C10.8114 19.2962 10.5813 18.9155 10.4948 18.492H14.1698C14.0834 18.9155 13.8532 19.2962 13.5184 19.5695C13.1835 19.8429 12.7645 19.9921 12.3323 19.992ZM5.45668 16.242C6.28636 14.5545 6.7073 12.4114 6.7073 9.86703C6.7073 8.37519 7.29993 6.94445 8.35483 5.88956C9.40972 4.83467 10.8405 4.24203 12.3323 4.24203C13.8241 4.24203 15.2549 4.83467 16.3098 5.88956C17.3647 6.94445 17.9573 8.37519 17.9573 9.86703C17.9573 12.4105 18.3773 14.5545 19.207 16.242H5.45668Z" fill="white"/>
<circle cx="18.5" cy="16.5" r="4.5" fill="#FF6D62"/>
</svg>
