<svg width="47" height="43" viewBox="0 0 47 43" fill="none" xmlns="http://www.w3.org/2000/svg">
<ellipse cx="23.1045" cy="21.5" rx="23.1045" ry="21.5" fill="#131313"/>
<mask id="mask0_86_1573" style="mask-type:luminance" maskUnits="userSpaceOnUse" x="10" y="11" width="24" height="22">
<path fill-rule="evenodd" clip-rule="evenodd" d="M10.7466 11.0003H33.8435V32.4941H10.7466V11.0003Z" fill="white"/>
</mask>
<g mask="url(#mask0_86_1573)">
<path fill-rule="evenodd" clip-rule="evenodd" d="M16.2362 29.6753C16.8595 29.6753 17.4474 29.8953 18.0696 30.1283C21.8813 31.7683 26.3893 31.0223 29.3263 28.2903C33.2014 24.6823 33.2014 18.8133 29.3263 15.2073C27.45 13.4613 24.9547 12.5003 22.2982 12.5003C19.6407 12.5003 17.1443 13.4623 15.2691 15.2083C12.3311 17.9403 11.5315 22.1353 13.2778 25.6483C13.5293 26.2273 13.7721 26.7913 13.7721 27.3773C13.7721 27.9623 13.5561 28.5513 13.3659 29.0713C13.209 29.4993 12.9715 30.1453 13.1241 30.2873C13.2735 30.4313 13.972 30.2043 14.433 30.0573C14.9865 29.8813 15.614 29.6793 16.2362 29.6753ZM22.2713 32.4943C20.6293 32.4943 18.9765 32.1713 17.4302 31.5053C16.9745 31.3353 16.5479 31.1753 16.2416 31.1753C15.8891 31.1773 15.4152 31.3293 14.9574 31.4763C14.0182 31.7763 12.849 32.1503 11.9839 31.3483C11.1221 30.5453 11.5197 29.4603 11.8399 28.5873C11.9979 28.1573 12.1602 27.7133 12.1602 27.3773C12.1602 27.1013 12.0173 26.7493 11.798 26.2423C9.78526 22.1973 10.7159 17.3223 14.13 14.1473C16.3093 12.1183 19.2097 11.0003 22.2971 11.0003C25.3845 11.0003 28.286 12.1173 30.4654 14.1463C34.9702 18.3383 34.9702 25.1583 30.4654 29.3503C28.257 31.4063 25.2835 32.4943 22.2713 32.4943Z" fill="#DAFE3C"/>
</g>
<path fill-rule="evenodd" clip-rule="evenodd" d="M26.5399 23.163C25.9467 23.163 25.4609 22.716 25.4609 22.163C25.4609 21.61 25.937 21.163 26.5302 21.163H26.5399C27.1331 21.163 27.6145 21.61 27.6145 22.163C27.6145 22.716 27.1331 23.163 26.5399 23.163Z" fill="#DAFE3C"/>
<path fill-rule="evenodd" clip-rule="evenodd" d="M22.2318 23.163C21.6386 23.163 21.1528 22.716 21.1528 22.163C21.1528 21.61 21.6278 21.163 22.2221 21.163H22.2318C22.825 21.163 23.3064 21.61 23.3064 22.163C23.3064 22.716 22.825 23.163 22.2318 23.163Z" fill="#DAFE3C"/>
<path fill-rule="evenodd" clip-rule="evenodd" d="M17.9232 23.163C17.33 23.163 16.8442 22.716 16.8442 22.163C16.8442 21.61 17.3203 21.163 17.9135 21.163H17.9232C18.5164 21.163 18.9978 21.61 18.9978 22.163C18.9978 22.716 18.5164 23.163 17.9232 23.163Z" fill="#DAFE3C"/>
</svg>
