<svg width="20" height="21" viewBox="0 0 20 21" fill="none" xmlns="http://www.w3.org/2000/svg">
<g clip-path="url(#clip0_542_1276)">
<path d="M10 20.5C15.5228 20.5 20 16.0228 20 10.5C20 4.97715 15.5228 0.5 10 0.5C4.47715 0.5 0 4.97715 0 10.5C0 16.0228 4.47715 20.5 10 20.5Z" fill="#3577E5"/>
<path d="M10.9333 16.4333V11.0333H12.7333L13 8.89998H10.9333V7.56665C10.9333 6.96665 11.1333 6.56665 12 6.56665H13.1333V4.63332C12.9333 4.63332 12.2667 4.56665 11.5333 4.56665C9.93333 4.56665 8.8 5.56665 8.8 7.36665V8.89998H7V11.0333H8.8V16.4333H10.9333Z" fill="white"/>
</g>
<defs>
<clipPath id="clip0_542_1276">
<rect width="20" height="20" fill="white" transform="translate(0 0.5)"/>
</clipPath>
</defs>
</svg>
