<svg width="17" height="17" viewBox="0 0 17 17" fill="none" xmlns="http://www.w3.org/2000/svg">
<path d="M16.4201 8.68395C16.4201 8.14585 16.3724 7.63499 16.2906 7.13776H8.59375V10.2097H13.0007C12.8032 11.2178 12.2242 12.0692 11.366 12.6482V14.6916H13.9952C15.5346 13.268 16.4201 11.1701 16.4201 8.68395Z" fill="#4285F4"/>
<path d="M8.59373 16.6737C10.8006 16.6737 12.6465 15.9381 13.9952 14.6916L11.366 12.6481C10.6303 13.1386 9.69717 13.4383 8.59373 13.4383C6.46175 13.4383 4.65673 12.0011 4.00965 10.0598H1.29871V12.1645C2.64055 14.8346 5.39917 16.6737 8.59373 16.6737Z" fill="#34A853"/>
<path d="M4.00966 10.0597C3.83937 9.56932 3.75082 9.04484 3.75082 8.49992C3.75082 7.95501 3.84618 7.43054 4.00966 6.94011V4.83539H1.29872C0.74018 5.93884 0.420044 7.17851 0.420044 8.49992C0.420044 9.82134 0.74018 11.061 1.29872 12.1645L4.00966 10.0597Z" fill="#FBBC05"/>
<path d="M8.59373 3.56171C9.79935 3.56171 10.8755 3.97721 11.727 4.78777L14.0565 2.45827C12.6465 1.13685 10.8006 0.326294 8.59373 0.326294C5.39917 0.326294 2.64055 2.16538 1.29871 4.83545L4.00965 6.94017C4.65673 4.99892 6.46175 3.56171 8.59373 3.56171Z" fill="#EA4335"/>
</svg>
