<svg width="25" height="26" viewBox="0 0 25 26" fill="none" xmlns="http://www.w3.org/2000/svg">
<path d="M1.41934 14.1017C0.982347 11.0691 0.763852 9.5523 1.38599 8.25625C2.00697 6.9602 3.33059 6.1713 5.97668 4.5958L7.56939 3.64705C9.97053 2.2153 11.1734 1.5 12.5005 1.5C13.8275 1.5 15.0293 2.2153 17.4316 3.64705L19.0243 4.5958C21.6692 6.1713 22.9928 6.9602 23.615 8.25625C24.2359 9.5523 24.0175 11.0691 23.5805 14.1017L23.2608 16.3293C22.7007 20.2255 22.4201 22.1724 21.0689 23.3362C19.7177 24.5 17.7363 24.5 13.7723 24.5H11.2286C7.26465 24.5 5.28325 24.5 3.93203 23.3362C2.58081 22.1724 2.30022 20.2255 1.74018 16.3293L1.41934 14.1017Z" stroke="black" stroke-width="1.5"/>
<path d="M15.9504 19.9H9.05054" stroke="black" stroke-width="1.5" stroke-linecap="round"/>
</svg>
