<svg width="47" height="43" viewBox="0 0 47 43" fill="none" xmlns="http://www.w3.org/2000/svg">
<ellipse cx="23.1045" cy="21.5" rx="23.1045" ry="21.5" fill="#131313"/>
<path fill-rule="evenodd" clip-rule="evenodd" d="M22.5676 13.5C17.5308 13.5 13.4332 17.313 13.4332 22C13.4332 26.687 17.5308 30.5 22.5676 30.5C27.6043 30.5 31.7019 26.687 31.7019 22C31.7019 17.313 27.6043 13.5 22.5676 13.5ZM22.5676 32C16.6421 32 11.8213 27.514 11.8213 22C11.8213 16.486 16.6421 12 22.5676 12C28.493 12 33.3138 16.486 33.3138 22C33.3138 27.514 28.493 32 22.5676 32Z" fill="#FE5C5C"/>
<path fill-rule="evenodd" clip-rule="evenodd" d="M22.5613 23.373C22.1164 23.373 21.7554 23.037 21.7554 22.623V18.204C21.7554 17.79 22.1164 17.454 22.5613 17.454C23.0062 17.454 23.3673 17.79 23.3673 18.204V22.623C23.3673 23.037 23.0062 23.373 22.5613 23.373Z" fill="#FE5C5C"/>
<path fill-rule="evenodd" clip-rule="evenodd" d="M22.5717 26.7959C21.9774 26.7959 21.4917 26.3489 21.4917 25.7959C21.4917 25.2429 21.9678 24.7959 22.561 24.7959H22.5717C23.166 24.7959 23.6463 25.2429 23.6463 25.7959C23.6463 26.3489 23.166 26.7959 22.5717 26.7959Z" fill="#FE5C5C"/>
</svg>
