<svg width="47" height="43" viewBox="0 0 47 43" fill="none" xmlns="http://www.w3.org/2000/svg">
<ellipse cx="23.1045" cy="21.5" rx="23.1045" ry="21.5" fill="#131313"/>
<path fill-rule="evenodd" clip-rule="evenodd" d="M33.1945 24.8956H28.8444C26.8058 24.8956 25.1466 23.3526 25.1455 21.4566C25.1455 19.5586 26.8047 18.0146 28.8444 18.0136H33.1945C33.6394 18.0136 34.0004 18.3496 34.0004 18.7636C34.0004 19.1776 33.6394 19.5136 33.1945 19.5136H28.8444C27.6934 19.5146 26.7574 20.3856 26.7574 21.4556C26.7574 22.5246 27.6945 23.3956 28.8444 23.3956H33.1945C33.6394 23.3956 34.0004 23.7316 34.0004 24.1456C34.0004 24.5596 33.6394 24.8956 33.1945 24.8956Z" fill="#DAFE3C"/>
<path fill-rule="evenodd" clip-rule="evenodd" d="M29.3361 22.1436H29.0008C28.5559 22.1436 28.1948 21.8076 28.1948 21.3936C28.1948 20.9796 28.5559 20.6436 29.0008 20.6436H29.3361C29.781 20.6436 30.142 20.9796 30.142 21.3936C30.142 21.8076 29.781 22.1436 29.3361 22.1436Z" fill="#DAFE3C"/>
<mask id="mask0_86_1589" style="mask-type:luminance" maskUnits="userSpaceOnUse" x="11" y="12" width="23" height="20">
<path fill-rule="evenodd" clip-rule="evenodd" d="M11.8213 12H34.0001V31.1729H11.8213V12Z" fill="white"/>
</mask>
<g mask="url(#mask0_86_1589)">
<path fill-rule="evenodd" clip-rule="evenodd" d="M18.2664 13.5C15.6013 13.5 13.4327 15.518 13.4327 17.998V25.175C13.4327 27.655 15.6013 29.673 18.2664 29.673H27.5555C30.2206 29.673 32.3881 27.655 32.3881 25.175V17.998C32.3881 15.518 30.2206 13.5 27.5555 13.5H18.2664ZM27.5555 31.173H18.2664C14.7126 31.173 11.8208 28.482 11.8208 25.175V17.998C11.8208 14.69 14.7126 12 18.2664 12H27.5555C31.1093 12 34 14.69 34 17.998V25.175C34 28.482 31.1093 31.173 27.5555 31.173Z" fill="#DAFE3C"/>
</g>
<path fill-rule="evenodd" clip-rule="evenodd" d="M23.3032 18.0381H17.5013C17.0564 18.0381 16.6953 17.7021 16.6953 17.2881C16.6953 16.8741 17.0564 16.5381 17.5013 16.5381H23.3032C23.7481 16.5381 24.1092 16.8741 24.1092 17.2881C24.1092 17.7021 23.7481 18.0381 23.3032 18.0381Z" fill="#DAFE3C"/>
</svg>
