<svg width="47" height="43" viewBox="0 0 47 43" fill="none" xmlns="http://www.w3.org/2000/svg">
<ellipse cx="23.1045" cy="21.5" rx="23.1045" ry="21.5" fill="#131313"/>
<path d="M21.8924 24.6728C23.0004 23.915 23.8416 22.8109 24.2916 21.5239C24.7416 20.2368 24.7765 18.8352 24.3912 17.5262C24.0059 16.2172 23.2208 15.0703 22.152 14.2552C21.0832 13.4401 19.7875 13 18.4564 13C17.1253 13 15.8296 13.4401 14.7608 14.2552C13.692 15.0703 12.9069 16.2172 12.5216 17.5262C12.1363 18.8352 12.1712 20.2368 12.6212 21.5239C13.0712 22.8109 13.9124 23.915 15.0204 24.6728C13.0162 25.4318 11.3045 26.8362 10.1408 28.6765C10.0796 28.7699 10.0372 28.8748 10.0158 28.9852C9.99449 29.0957 9.99473 29.2093 10.0165 29.3196C10.0383 29.4299 10.0812 29.5347 10.1428 29.6278C10.2044 29.7209 10.2833 29.8006 10.3751 29.862C10.4668 29.9235 10.5696 29.9657 10.6773 29.986C10.7851 30.0064 10.8957 30.0045 11.0028 29.9805C11.1098 29.9565 11.2111 29.911 11.3009 29.8464C11.3906 29.7818 11.467 29.6996 11.5255 29.6044C12.2762 28.4183 13.3033 27.4436 14.5137 26.7688C15.7241 26.094 17.0793 25.7406 18.4564 25.7406C19.8335 25.7406 21.1888 26.094 22.3991 26.7688C23.6095 27.4436 24.6367 28.4183 25.3873 29.6044C25.5086 29.7896 25.6959 29.9183 25.9087 29.9627C26.1216 30.0071 26.3429 29.9636 26.5248 29.8417C26.7068 29.7198 26.8347 29.5292 26.8809 29.3112C26.9272 29.0931 26.8881 28.8651 26.772 28.6765C25.6083 26.8362 23.8967 25.4318 21.8924 24.6728ZM13.9095 19.3728C13.9095 18.4489 14.1762 17.5457 14.6758 16.7775C15.1754 16.0092 15.8856 15.4105 16.7164 15.0569C17.5472 14.7033 18.4615 14.6108 19.3435 14.7911C20.2255 14.9713 21.0356 15.4162 21.6715 16.0696C22.3074 16.7229 22.7405 17.5553 22.9159 18.4614C23.0914 19.3676 23.0013 20.3069 22.6572 21.1605C22.313 22.0141 21.7303 22.7437 20.9825 23.257C20.2348 23.7703 19.3557 24.0443 18.4564 24.0443C17.2509 24.0429 16.0952 23.5503 15.2428 22.6745C14.3904 21.7987 13.9109 20.6113 13.9095 19.3728ZM35.625 29.8518C35.4414 29.9748 35.2177 30.0179 35.0032 29.9715C34.7886 29.9251 34.6008 29.7931 34.481 29.6044C33.7313 28.4176 32.7043 27.4424 31.4937 26.768C30.283 26.0935 28.9273 25.7411 27.5502 25.743C27.3309 25.743 27.1206 25.6535 26.9656 25.4942C26.8106 25.335 26.7235 25.1189 26.7235 24.8937C26.7235 24.6684 26.8106 24.4523 26.9656 24.2931C27.1206 24.1338 27.3309 24.0443 27.5502 24.0443C28.2198 24.0436 28.881 23.8911 29.4865 23.5974C30.0921 23.3038 30.627 22.8764 31.0531 22.3457C31.4793 21.8151 31.7861 21.1943 31.9516 20.5277C32.1171 19.8611 32.1373 19.1652 32.0107 18.4896C31.8842 17.8141 31.6139 17.1756 31.2193 16.6198C30.8247 16.064 30.3155 15.6046 29.728 15.2745C29.1406 14.9443 28.4894 14.7515 27.821 14.7099C27.1527 14.6682 26.4836 14.7788 25.8616 15.0336C25.7602 15.0787 25.651 15.1024 25.5406 15.1033C25.4301 15.1043 25.3205 15.0825 25.2184 15.0392C25.1163 14.9959 25.0236 14.9321 24.9459 14.8514C24.8682 14.7707 24.807 14.6748 24.766 14.5694C24.725 14.464 24.7049 14.3513 24.707 14.2378C24.7091 14.1243 24.7334 14.0124 24.7783 13.9087C24.8232 13.805 24.8879 13.7116 24.9685 13.634C25.0492 13.5564 25.1441 13.4962 25.2478 13.457C26.6712 12.8737 28.2545 12.8528 29.6921 13.3981C31.1297 13.9434 32.3198 15.0164 33.0329 16.41C33.7459 17.8037 33.9313 19.4193 33.5534 20.9451C33.1754 22.4709 32.2609 23.7989 30.9862 24.6728C32.9904 25.4318 34.7021 26.8362 35.8658 28.6765C35.9855 28.8652 36.0274 29.095 35.9823 29.3154C35.9371 29.5358 35.8086 29.7287 35.625 29.8518Z" fill="#DAFE3C"/>
</svg>
