<svg width="47" height="43" viewBox="0 0 47 43" fill="none" xmlns="http://www.w3.org/2000/svg">
<ellipse cx="23.1045" cy="21.5" rx="23.1045" ry="21.5" fill="#131313"/>
<path d="M32.5 21.1491C32.5 27.2036 28.9467 32.1255 23.5 33.5C18.0533 32.1255 14.5 26.9636 14.5 20.9091V15L23.5 10.5L32.5 14.5V21.1491ZM23.5 31.8182C27.4583 30.7273 30.8889 25.8618 30.8889 21.1491V15.7818L23.5 12.3782L16.1111 15.7818V21.1491C16.1111 25.8618 19.5417 30.7273 23.5 31.8182ZM26.4556 20.9091V19.2727C26.4556 17.7455 24.9778 16.5455 23.5 16.5455C22.0222 16.5455 20.5444 17.7455 20.5444 19.2727V20.9091C19.9111 20.9091 19.2778 21.5636 19.2778 22.2182V26.0364C19.2778 26.8 19.9111 27.4545 20.5444 27.4545H26.35C27.0889 27.4545 27.7222 26.8 27.7222 26.1455V22.3273C27.7222 21.5636 27.0889 20.9091 26.4556 20.9091ZM25.0833 20.9091H21.9167V19.2727C21.9167 18.4 22.6556 17.8545 23.5 17.8545C24.3444 17.8545 25.0833 18.4 25.0833 19.2727V20.9091Z" fill="#DAFE3C"/>
</svg>
